<mxfile host="app.diagrams.net" modified="2023-03-31T13:21:27.706Z" agent="Mozilla/5.0 (Windows NT 6.1; Win64; x64; rv:102.0) Gecko/20100101 Firefox/102.0" etag="m99ZJwJ8HZEq9kCjndxc" version="21.1.2" type="github">
  <diagram name="Page-1" id="2YBvvXClWsGukQMizWep">
    <mxGraphModel dx="1434" dy="724" grid="1" gridSize="10" guides="1" tooltips="1" connect="1" arrows="1" fold="1" page="1" pageScale="1" pageWidth="850" pageHeight="1100" math="0" shadow="0">
      <root>
        <mxCell id="0" />
        <mxCell id="1" parent="0" />
        <mxCell id="aM9ryv3xv72pqoxQDRHE-1" value="Application" style="shape=umlLifeline;perimeter=lifelinePerimeter;whiteSpace=wrap;html=1;container=0;dropTarget=0;collapsible=0;recursiveResize=0;outlineConnect=0;portConstraint=eastwest;newEdgeStyle={&quot;edgeStyle&quot;:&quot;elbowEdgeStyle&quot;,&quot;elbow&quot;:&quot;vertical&quot;,&quot;curved&quot;:0,&quot;rounded&quot;:0};" parent="1" vertex="1">
          <mxGeometry x="40" y="40" width="100" height="1440" as="geometry" />
        </mxCell>
        <mxCell id="bC_Lkfa6jtd_UAPSFCzS-63" value="" style="html=1;points=[];perimeter=orthogonalPerimeter;outlineConnect=0;targetShapes=umlLifeline;portConstraint=eastwest;newEdgeStyle={&quot;edgeStyle&quot;:&quot;elbowEdgeStyle&quot;,&quot;elbow&quot;:&quot;vertical&quot;,&quot;curved&quot;:0,&quot;rounded&quot;:0};" vertex="1" parent="aM9ryv3xv72pqoxQDRHE-1">
          <mxGeometry x="45" y="60" width="10" height="920" as="geometry" />
        </mxCell>
        <mxCell id="bC_Lkfa6jtd_UAPSFCzS-75" value="" style="html=1;points=[];perimeter=orthogonalPerimeter;outlineConnect=0;targetShapes=umlLifeline;portConstraint=eastwest;newEdgeStyle={&quot;edgeStyle&quot;:&quot;elbowEdgeStyle&quot;,&quot;elbow&quot;:&quot;vertical&quot;,&quot;curved&quot;:0,&quot;rounded&quot;:0};" vertex="1" parent="aM9ryv3xv72pqoxQDRHE-1">
          <mxGeometry x="50" y="90" width="10" height="650" as="geometry" />
        </mxCell>
        <mxCell id="bC_Lkfa6jtd_UAPSFCzS-76" value="" style="html=1;points=[];perimeter=orthogonalPerimeter;outlineConnect=0;targetShapes=umlLifeline;portConstraint=eastwest;newEdgeStyle={&quot;edgeStyle&quot;:&quot;elbowEdgeStyle&quot;,&quot;elbow&quot;:&quot;vertical&quot;,&quot;curved&quot;:0,&quot;rounded&quot;:0};" vertex="1" parent="aM9ryv3xv72pqoxQDRHE-1">
          <mxGeometry x="50" y="790" width="10" height="150" as="geometry" />
        </mxCell>
        <mxCell id="aM9ryv3xv72pqoxQDRHE-5" value="Serveur HTTP" style="shape=umlLifeline;perimeter=lifelinePerimeter;whiteSpace=wrap;html=1;container=0;dropTarget=0;collapsible=0;recursiveResize=0;outlineConnect=0;portConstraint=eastwest;newEdgeStyle={&quot;edgeStyle&quot;:&quot;elbowEdgeStyle&quot;,&quot;elbow&quot;:&quot;vertical&quot;,&quot;curved&quot;:0,&quot;rounded&quot;:0};" parent="1" vertex="1">
          <mxGeometry x="220" y="40" width="100" height="1440" as="geometry" />
        </mxCell>
        <mxCell id="bC_Lkfa6jtd_UAPSFCzS-24" value="" style="html=1;points=[];perimeter=orthogonalPerimeter;outlineConnect=0;targetShapes=umlLifeline;portConstraint=eastwest;newEdgeStyle={&quot;edgeStyle&quot;:&quot;elbowEdgeStyle&quot;,&quot;elbow&quot;:&quot;vertical&quot;,&quot;curved&quot;:0,&quot;rounded&quot;:0};" vertex="1" parent="aM9ryv3xv72pqoxQDRHE-5">
          <mxGeometry x="45" y="90" width="10" height="650" as="geometry" />
        </mxCell>
        <mxCell id="bC_Lkfa6jtd_UAPSFCzS-74" value="" style="html=1;points=[];perimeter=orthogonalPerimeter;outlineConnect=0;targetShapes=umlLifeline;portConstraint=eastwest;newEdgeStyle={&quot;edgeStyle&quot;:&quot;elbowEdgeStyle&quot;,&quot;elbow&quot;:&quot;vertical&quot;,&quot;curved&quot;:0,&quot;rounded&quot;:0};" vertex="1" parent="aM9ryv3xv72pqoxQDRHE-5">
          <mxGeometry x="50" y="130" width="10" height="560" as="geometry" />
        </mxCell>
        <mxCell id="bC_Lkfa6jtd_UAPSFCzS-1" value="Programme python" style="shape=umlLifeline;perimeter=lifelinePerimeter;whiteSpace=wrap;html=1;container=0;dropTarget=0;collapsible=0;recursiveResize=0;outlineConnect=0;portConstraint=eastwest;newEdgeStyle={&quot;edgeStyle&quot;:&quot;elbowEdgeStyle&quot;,&quot;elbow&quot;:&quot;vertical&quot;,&quot;curved&quot;:0,&quot;rounded&quot;:0};" vertex="1" parent="1">
          <mxGeometry x="390" y="40" width="100" height="1450" as="geometry" />
        </mxCell>
        <mxCell id="bC_Lkfa6jtd_UAPSFCzS-29" value="" style="html=1;points=[];perimeter=orthogonalPerimeter;outlineConnect=0;targetShapes=umlLifeline;portConstraint=eastwest;newEdgeStyle={&quot;edgeStyle&quot;:&quot;elbowEdgeStyle&quot;,&quot;elbow&quot;:&quot;vertical&quot;,&quot;curved&quot;:0,&quot;rounded&quot;:0};" vertex="1" parent="bC_Lkfa6jtd_UAPSFCzS-1">
          <mxGeometry x="45" y="130" width="10" height="560" as="geometry" />
        </mxCell>
        <mxCell id="bC_Lkfa6jtd_UAPSFCzS-72" value="" style="html=1;points=[];perimeter=orthogonalPerimeter;outlineConnect=0;targetShapes=umlLifeline;portConstraint=eastwest;newEdgeStyle={&quot;edgeStyle&quot;:&quot;elbowEdgeStyle&quot;,&quot;elbow&quot;:&quot;vertical&quot;,&quot;curved&quot;:0,&quot;rounded&quot;:0};" vertex="1" parent="bC_Lkfa6jtd_UAPSFCzS-1">
          <mxGeometry x="50" y="270" width="10" height="270" as="geometry" />
        </mxCell>
        <mxCell id="bC_Lkfa6jtd_UAPSFCzS-73" value="" style="html=1;points=[];perimeter=orthogonalPerimeter;outlineConnect=0;targetShapes=umlLifeline;portConstraint=eastwest;newEdgeStyle={&quot;edgeStyle&quot;:&quot;elbowEdgeStyle&quot;,&quot;elbow&quot;:&quot;vertical&quot;,&quot;curved&quot;:0,&quot;rounded&quot;:0};" vertex="1" parent="bC_Lkfa6jtd_UAPSFCzS-1">
          <mxGeometry x="50" y="570" width="10" height="80" as="geometry" />
        </mxCell>
        <mxCell id="bC_Lkfa6jtd_UAPSFCzS-3" value="SQL" style="shape=umlLifeline;perimeter=lifelinePerimeter;whiteSpace=wrap;html=1;container=0;dropTarget=0;collapsible=0;recursiveResize=0;outlineConnect=0;portConstraint=eastwest;newEdgeStyle={&quot;edgeStyle&quot;:&quot;elbowEdgeStyle&quot;,&quot;elbow&quot;:&quot;vertical&quot;,&quot;curved&quot;:0,&quot;rounded&quot;:0};" vertex="1" parent="1">
          <mxGeometry x="560" y="40" width="100" height="1450" as="geometry" />
        </mxCell>
        <mxCell id="bC_Lkfa6jtd_UAPSFCzS-57" value="" style="html=1;points=[];perimeter=orthogonalPerimeter;outlineConnect=0;targetShapes=umlLifeline;portConstraint=eastwest;newEdgeStyle={&quot;edgeStyle&quot;:&quot;elbowEdgeStyle&quot;,&quot;elbow&quot;:&quot;vertical&quot;,&quot;curved&quot;:0,&quot;rounded&quot;:0};" vertex="1" parent="bC_Lkfa6jtd_UAPSFCzS-3">
          <mxGeometry x="45" y="570" width="10" height="80" as="geometry" />
        </mxCell>
        <mxCell id="bC_Lkfa6jtd_UAPSFCzS-6" value="" style="swimlane;startSize=0;" vertex="1" parent="1">
          <mxGeometry x="210" width="1160" height="110" as="geometry" />
        </mxCell>
        <mxCell id="bC_Lkfa6jtd_UAPSFCzS-13" value="/root" style="swimlane;whiteSpace=wrap;html=1;" vertex="1" parent="bC_Lkfa6jtd_UAPSFCzS-6">
          <mxGeometry x="680" width="310" height="110" as="geometry" />
        </mxCell>
        <mxCell id="bC_Lkfa6jtd_UAPSFCzS-7" value="Serveur FTP" style="shape=umlLifeline;perimeter=lifelinePerimeter;whiteSpace=wrap;html=1;container=0;dropTarget=0;collapsible=0;recursiveResize=0;outlineConnect=0;portConstraint=eastwest;newEdgeStyle={&quot;edgeStyle&quot;:&quot;elbowEdgeStyle&quot;,&quot;elbow&quot;:&quot;vertical&quot;,&quot;curved&quot;:0,&quot;rounded&quot;:0};" vertex="1" parent="1">
          <mxGeometry x="740" y="40" width="100" height="1450" as="geometry" />
        </mxCell>
        <mxCell id="bC_Lkfa6jtd_UAPSFCzS-27" value="" style="html=1;points=[];perimeter=orthogonalPerimeter;outlineConnect=0;targetShapes=umlLifeline;portConstraint=eastwest;newEdgeStyle={&quot;edgeStyle&quot;:&quot;elbowEdgeStyle&quot;,&quot;elbow&quot;:&quot;vertical&quot;,&quot;curved&quot;:0,&quot;rounded&quot;:0};" vertex="1" parent="bC_Lkfa6jtd_UAPSFCzS-7">
          <mxGeometry x="45" y="110" width="10" height="40" as="geometry" />
        </mxCell>
        <mxCell id="bC_Lkfa6jtd_UAPSFCzS-66" value="" style="html=1;points=[];perimeter=orthogonalPerimeter;outlineConnect=0;targetShapes=umlLifeline;portConstraint=eastwest;newEdgeStyle={&quot;edgeStyle&quot;:&quot;elbowEdgeStyle&quot;,&quot;elbow&quot;:&quot;vertical&quot;,&quot;curved&quot;:0,&quot;rounded&quot;:0};" vertex="1" parent="bC_Lkfa6jtd_UAPSFCzS-7">
          <mxGeometry x="45" y="790" width="10" height="150" as="geometry" />
        </mxCell>
        <mxCell id="bC_Lkfa6jtd_UAPSFCzS-77" value="" style="html=1;points=[];perimeter=orthogonalPerimeter;outlineConnect=0;targetShapes=umlLifeline;portConstraint=eastwest;newEdgeStyle={&quot;edgeStyle&quot;:&quot;elbowEdgeStyle&quot;,&quot;elbow&quot;:&quot;vertical&quot;,&quot;curved&quot;:0,&quot;rounded&quot;:0};" vertex="1" parent="bC_Lkfa6jtd_UAPSFCzS-7">
          <mxGeometry x="50" y="830" width="10" height="60" as="geometry" />
        </mxCell>
        <mxCell id="bC_Lkfa6jtd_UAPSFCzS-9" value="Dossier client" style="shape=umlLifeline;perimeter=lifelinePerimeter;whiteSpace=wrap;html=1;container=0;dropTarget=0;collapsible=0;recursiveResize=0;outlineConnect=0;portConstraint=eastwest;newEdgeStyle={&quot;edgeStyle&quot;:&quot;elbowEdgeStyle&quot;,&quot;elbow&quot;:&quot;vertical&quot;,&quot;curved&quot;:0,&quot;rounded&quot;:0};" vertex="1" parent="1">
          <mxGeometry x="910" y="40" width="100" height="1460" as="geometry" />
        </mxCell>
        <mxCell id="bC_Lkfa6jtd_UAPSFCzS-10" value="" style="html=1;points=[];perimeter=orthogonalPerimeter;outlineConnect=0;targetShapes=umlLifeline;portConstraint=eastwest;newEdgeStyle={&quot;edgeStyle&quot;:&quot;elbowEdgeStyle&quot;,&quot;elbow&quot;:&quot;vertical&quot;,&quot;curved&quot;:0,&quot;rounded&quot;:0};" vertex="1" parent="bC_Lkfa6jtd_UAPSFCzS-9">
          <mxGeometry x="45" y="150" width="10" height="50" as="geometry" />
        </mxCell>
        <mxCell id="bC_Lkfa6jtd_UAPSFCzS-11" value="Dossier main" style="shape=umlLifeline;perimeter=lifelinePerimeter;whiteSpace=wrap;html=1;container=0;dropTarget=0;collapsible=0;recursiveResize=0;outlineConnect=0;portConstraint=eastwest;newEdgeStyle={&quot;edgeStyle&quot;:&quot;elbowEdgeStyle&quot;,&quot;elbow&quot;:&quot;vertical&quot;,&quot;curved&quot;:0,&quot;rounded&quot;:0};" vertex="1" parent="1">
          <mxGeometry x="1080" y="40" width="100" height="1430" as="geometry" />
        </mxCell>
        <mxCell id="bC_Lkfa6jtd_UAPSFCzS-12" value="" style="html=1;points=[];perimeter=orthogonalPerimeter;outlineConnect=0;targetShapes=umlLifeline;portConstraint=eastwest;newEdgeStyle={&quot;edgeStyle&quot;:&quot;elbowEdgeStyle&quot;,&quot;elbow&quot;:&quot;vertical&quot;,&quot;curved&quot;:0,&quot;rounded&quot;:0};" vertex="1" parent="bC_Lkfa6jtd_UAPSFCzS-11">
          <mxGeometry x="45" y="170" width="10" height="20" as="geometry" />
        </mxCell>
        <mxCell id="bC_Lkfa6jtd_UAPSFCzS-71" value="" style="html=1;points=[];perimeter=orthogonalPerimeter;outlineConnect=0;targetShapes=umlLifeline;portConstraint=eastwest;newEdgeStyle={&quot;edgeStyle&quot;:&quot;elbowEdgeStyle&quot;,&quot;elbow&quot;:&quot;vertical&quot;,&quot;curved&quot;:0,&quot;rounded&quot;:0};" vertex="1" parent="bC_Lkfa6jtd_UAPSFCzS-11">
          <mxGeometry x="45" y="830" width="10" height="60" as="geometry" />
        </mxCell>
        <mxCell id="bC_Lkfa6jtd_UAPSFCzS-21" value="Nom image" style="endArrow=classic;html=1;rounded=0;" edge="1" parent="1" source="aM9ryv3xv72pqoxQDRHE-1" target="bC_Lkfa6jtd_UAPSFCzS-24">
          <mxGeometry width="50" height="50" relative="1" as="geometry">
            <mxPoint x="380" y="270" as="sourcePoint" />
            <mxPoint x="260" y="130" as="targetPoint" />
            <Array as="points">
              <mxPoint x="180" y="130" />
            </Array>
          </mxGeometry>
        </mxCell>
        <mxCell id="bC_Lkfa6jtd_UAPSFCzS-22" value="Image &quot;userId_Coords_Date_Heure.jpg&quot;" style="endArrow=classic;html=1;rounded=0;" edge="1" parent="1" source="aM9ryv3xv72pqoxQDRHE-1" target="bC_Lkfa6jtd_UAPSFCzS-7">
          <mxGeometry width="50" height="50" relative="1" as="geometry">
            <mxPoint x="90" y="150" as="sourcePoint" />
            <mxPoint x="270" y="150" as="targetPoint" />
            <Array as="points">
              <mxPoint x="130" y="130" />
              <mxPoint x="180" y="150" />
            </Array>
          </mxGeometry>
        </mxCell>
        <mxCell id="bC_Lkfa6jtd_UAPSFCzS-25" value="" style="endArrow=classic;html=1;rounded=0;" edge="1" parent="1" source="aM9ryv3xv72pqoxQDRHE-5" target="bC_Lkfa6jtd_UAPSFCzS-29">
          <mxGeometry width="50" height="50" relative="1" as="geometry">
            <mxPoint x="480" y="290" as="sourcePoint" />
            <mxPoint x="530" y="240" as="targetPoint" />
            <Array as="points">
              <mxPoint x="330" y="170" />
            </Array>
          </mxGeometry>
        </mxCell>
        <mxCell id="bC_Lkfa6jtd_UAPSFCzS-26" value="&lt;div&gt;Nom image&lt;/div&gt;" style="edgeLabel;html=1;align=center;verticalAlign=middle;resizable=0;points=[];" vertex="1" connectable="0" parent="bC_Lkfa6jtd_UAPSFCzS-25">
          <mxGeometry x="-0.1353" relative="1" as="geometry">
            <mxPoint x="18" as="offset" />
          </mxGeometry>
        </mxCell>
        <mxCell id="bC_Lkfa6jtd_UAPSFCzS-28" value="&lt;div&gt;Stockage de l&#39;image et&lt;/div&gt;&lt;div&gt;création du dossier si&lt;/div&gt;&lt;div&gt;besoin&lt;br&gt;&lt;/div&gt;" style="endArrow=classic;html=1;rounded=0;" edge="1" parent="1" source="bC_Lkfa6jtd_UAPSFCzS-7" target="bC_Lkfa6jtd_UAPSFCzS-10">
          <mxGeometry width="50" height="50" relative="1" as="geometry">
            <mxPoint x="850" y="290" as="sourcePoint" />
            <mxPoint x="900" y="240" as="targetPoint" />
            <Array as="points">
              <mxPoint x="870" y="190" />
            </Array>
          </mxGeometry>
        </mxCell>
        <mxCell id="bC_Lkfa6jtd_UAPSFCzS-30" value="" style="endArrow=classic;html=1;rounded=0;" edge="1" parent="1" source="bC_Lkfa6jtd_UAPSFCzS-12" target="bC_Lkfa6jtd_UAPSFCzS-29">
          <mxGeometry width="50" height="50" relative="1" as="geometry">
            <mxPoint x="870" y="350" as="sourcePoint" />
            <mxPoint x="450" y="220" as="targetPoint" />
            <Array as="points">
              <mxPoint x="780" y="220" />
            </Array>
          </mxGeometry>
        </mxCell>
        <mxCell id="bC_Lkfa6jtd_UAPSFCzS-31" value="Récupération des images de coordonnées proches" style="edgeLabel;html=1;align=center;verticalAlign=middle;resizable=0;points=[];" vertex="1" connectable="0" parent="bC_Lkfa6jtd_UAPSFCzS-30">
          <mxGeometry x="0.0884" y="-2" relative="1" as="geometry">
            <mxPoint x="-94" y="-3" as="offset" />
          </mxGeometry>
        </mxCell>
        <mxCell id="bC_Lkfa6jtd_UAPSFCzS-32" value="" style="endArrow=classic;html=1;rounded=0;" edge="1" parent="1" source="bC_Lkfa6jtd_UAPSFCzS-9" target="bC_Lkfa6jtd_UAPSFCzS-29">
          <mxGeometry width="50" height="50" relative="1" as="geometry">
            <mxPoint x="680" y="290" as="sourcePoint" />
            <mxPoint x="730" y="240" as="targetPoint" />
            <Array as="points">
              <mxPoint x="880" y="240" />
              <mxPoint x="670" y="240" />
            </Array>
          </mxGeometry>
        </mxCell>
        <mxCell id="bC_Lkfa6jtd_UAPSFCzS-33" value="Récupération et load de l&#39;image client" style="edgeLabel;html=1;align=center;verticalAlign=middle;resizable=0;points=[];" vertex="1" connectable="0" parent="bC_Lkfa6jtd_UAPSFCzS-32">
          <mxGeometry x="-0.0651" y="1" relative="1" as="geometry">
            <mxPoint x="-98" y="-1" as="offset" />
          </mxGeometry>
        </mxCell>
        <mxCell id="bC_Lkfa6jtd_UAPSFCzS-43" value="IA" style="shape=umlLifeline;perimeter=lifelinePerimeter;whiteSpace=wrap;html=1;container=0;dropTarget=0;collapsible=0;recursiveResize=0;outlineConnect=0;portConstraint=eastwest;newEdgeStyle={&quot;edgeStyle&quot;:&quot;elbowEdgeStyle&quot;,&quot;elbow&quot;:&quot;vertical&quot;,&quot;curved&quot;:0,&quot;rounded&quot;:0};" vertex="1" parent="1">
          <mxGeometry x="1260" y="40" width="100" height="1450" as="geometry" />
        </mxCell>
        <mxCell id="bC_Lkfa6jtd_UAPSFCzS-44" value="" style="html=1;points=[];perimeter=orthogonalPerimeter;outlineConnect=0;targetShapes=umlLifeline;portConstraint=eastwest;newEdgeStyle={&quot;edgeStyle&quot;:&quot;elbowEdgeStyle&quot;,&quot;elbow&quot;:&quot;vertical&quot;,&quot;curved&quot;:0,&quot;rounded&quot;:0};" vertex="1" parent="bC_Lkfa6jtd_UAPSFCzS-43">
          <mxGeometry x="45" y="270" width="10" height="270" as="geometry" />
        </mxCell>
        <mxCell id="bC_Lkfa6jtd_UAPSFCzS-49" value="" style="endArrow=classic;html=1;rounded=0;" edge="1" parent="1" source="bC_Lkfa6jtd_UAPSFCzS-1">
          <mxGeometry width="50" height="50" relative="1" as="geometry">
            <mxPoint x="700" y="290" as="sourcePoint" />
            <mxPoint x="1305" y="310" as="targetPoint" />
            <Array as="points">
              <mxPoint x="1010" y="310" />
            </Array>
          </mxGeometry>
        </mxCell>
        <mxCell id="bC_Lkfa6jtd_UAPSFCzS-54" value="&lt;div&gt;Envoi de toutes les images&lt;/div&gt;" style="edgeLabel;html=1;align=center;verticalAlign=middle;resizable=0;points=[];" vertex="1" connectable="0" parent="bC_Lkfa6jtd_UAPSFCzS-49">
          <mxGeometry x="0.0087" y="2" relative="1" as="geometry">
            <mxPoint as="offset" />
          </mxGeometry>
        </mxCell>
        <mxCell id="bC_Lkfa6jtd_UAPSFCzS-55" value="Tient c&#39;est ces routes : routeID" style="endArrow=classic;html=1;rounded=0;" edge="1" parent="1" source="bC_Lkfa6jtd_UAPSFCzS-43" target="bC_Lkfa6jtd_UAPSFCzS-72">
          <mxGeometry width="50" height="50" relative="1" as="geometry">
            <mxPoint x="850" y="520" as="sourcePoint" />
            <mxPoint x="900" y="470" as="targetPoint" />
            <Array as="points">
              <mxPoint x="870" y="580" />
            </Array>
          </mxGeometry>
        </mxCell>
        <mxCell id="bC_Lkfa6jtd_UAPSFCzS-56" value="" style="endArrow=classic;html=1;rounded=0;" edge="1" parent="1" source="bC_Lkfa6jtd_UAPSFCzS-29" target="bC_Lkfa6jtd_UAPSFCzS-3">
          <mxGeometry width="50" height="50" relative="1" as="geometry">
            <mxPoint x="450" y="630" as="sourcePoint" />
            <mxPoint x="650" y="710" as="targetPoint" />
            <Array as="points">
              <mxPoint x="530" y="610" />
            </Array>
          </mxGeometry>
        </mxCell>
        <mxCell id="bC_Lkfa6jtd_UAPSFCzS-58" value="différents routeID" style="edgeLabel;html=1;align=center;verticalAlign=middle;resizable=0;points=[];" vertex="1" connectable="0" parent="bC_Lkfa6jtd_UAPSFCzS-56">
          <mxGeometry x="-0.1733" y="3" relative="1" as="geometry">
            <mxPoint x="17" y="3" as="offset" />
          </mxGeometry>
        </mxCell>
        <mxCell id="bC_Lkfa6jtd_UAPSFCzS-59" value="" style="endArrow=classic;html=1;rounded=0;" edge="1" parent="1" source="bC_Lkfa6jtd_UAPSFCzS-3">
          <mxGeometry width="50" height="50" relative="1" as="geometry">
            <mxPoint x="600" y="820" as="sourcePoint" />
            <mxPoint x="450" y="690" as="targetPoint" />
            <Array as="points">
              <mxPoint x="510" y="690" />
            </Array>
          </mxGeometry>
        </mxCell>
        <mxCell id="bC_Lkfa6jtd_UAPSFCzS-60" value="&lt;div&gt;Infos sur les routes&lt;/div&gt;&lt;div&gt;(avec adresses FTP)&lt;br&gt;&lt;/div&gt;" style="edgeLabel;html=1;align=center;verticalAlign=middle;resizable=0;points=[];" vertex="1" connectable="0" parent="bC_Lkfa6jtd_UAPSFCzS-59">
          <mxGeometry x="-0.1118" y="1" relative="1" as="geometry">
            <mxPoint as="offset" />
          </mxGeometry>
        </mxCell>
        <mxCell id="bC_Lkfa6jtd_UAPSFCzS-61" value="&lt;div&gt;Infos sur les routes&lt;/div&gt;&lt;div&gt;(avec adresses FTP)&lt;br&gt;&lt;/div&gt;&amp;nbsp;JSON" style="endArrow=classic;html=1;rounded=0;" edge="1" parent="1">
          <mxGeometry width="50" height="50" relative="1" as="geometry">
            <mxPoint x="440.5" y="730" as="sourcePoint" />
            <mxPoint x="270.5" y="730" as="targetPoint" />
            <Array as="points">
              <mxPoint x="351" y="730" />
            </Array>
          </mxGeometry>
        </mxCell>
        <mxCell id="bC_Lkfa6jtd_UAPSFCzS-62" value="Toutes les infos en JSON" style="endArrow=classic;html=1;rounded=0;" edge="1" parent="1" source="aM9ryv3xv72pqoxQDRHE-5" target="aM9ryv3xv72pqoxQDRHE-1">
          <mxGeometry width="50" height="50" relative="1" as="geometry">
            <mxPoint x="470" y="690" as="sourcePoint" />
            <mxPoint x="520" y="640" as="targetPoint" />
            <Array as="points">
              <mxPoint x="190" y="780" />
            </Array>
          </mxGeometry>
        </mxCell>
        <mxCell id="bC_Lkfa6jtd_UAPSFCzS-64" value="" style="endArrow=classic;html=1;rounded=0;" edge="1" parent="1" source="aM9ryv3xv72pqoxQDRHE-1" target="bC_Lkfa6jtd_UAPSFCzS-7">
          <mxGeometry width="50" height="50" relative="1" as="geometry">
            <mxPoint x="330" y="710" as="sourcePoint" />
            <mxPoint x="380" y="660" as="targetPoint" />
            <Array as="points">
              <mxPoint x="470" y="830" />
            </Array>
          </mxGeometry>
        </mxCell>
        <mxCell id="bC_Lkfa6jtd_UAPSFCzS-65" value="Adresses FTP avec chemins de fichiers" style="edgeLabel;html=1;align=center;verticalAlign=middle;resizable=0;points=[];" vertex="1" connectable="0" parent="bC_Lkfa6jtd_UAPSFCzS-64">
          <mxGeometry x="0.01" relative="1" as="geometry">
            <mxPoint as="offset" />
          </mxGeometry>
        </mxCell>
        <mxCell id="bC_Lkfa6jtd_UAPSFCzS-67" value="Sélection des images" style="endArrow=classic;html=1;rounded=0;" edge="1" parent="1" source="bC_Lkfa6jtd_UAPSFCzS-7" target="bC_Lkfa6jtd_UAPSFCzS-11">
          <mxGeometry width="50" height="50" relative="1" as="geometry">
            <mxPoint x="840" y="680" as="sourcePoint" />
            <mxPoint x="890" y="630" as="targetPoint" />
            <Array as="points">
              <mxPoint x="930" y="870" />
            </Array>
          </mxGeometry>
        </mxCell>
        <mxCell id="bC_Lkfa6jtd_UAPSFCzS-68" value="Récupération des images" style="endArrow=classic;html=1;rounded=0;" edge="1" parent="1" source="bC_Lkfa6jtd_UAPSFCzS-11" target="bC_Lkfa6jtd_UAPSFCzS-7">
          <mxGeometry width="50" height="50" relative="1" as="geometry">
            <mxPoint x="840" y="740" as="sourcePoint" />
            <mxPoint x="890" y="690" as="targetPoint" />
            <Array as="points">
              <mxPoint x="980" y="930" />
            </Array>
          </mxGeometry>
        </mxCell>
        <mxCell id="bC_Lkfa6jtd_UAPSFCzS-69" value="Renvoi des images" style="endArrow=classic;html=1;rounded=0;" edge="1" parent="1" source="bC_Lkfa6jtd_UAPSFCzS-7" target="aM9ryv3xv72pqoxQDRHE-1">
          <mxGeometry width="50" height="50" relative="1" as="geometry">
            <mxPoint x="700" y="1020" as="sourcePoint" />
            <mxPoint x="750" y="970" as="targetPoint" />
            <Array as="points">
              <mxPoint x="430" y="980" />
            </Array>
          </mxGeometry>
        </mxCell>
        <mxCell id="bC_Lkfa6jtd_UAPSFCzS-70" value="Suppression de l&#39;image du client" style="shape=process;whiteSpace=wrap;html=1;backgroundOutline=1;" vertex="1" parent="1">
          <mxGeometry x="910" y="240" width="100" height="40" as="geometry" />
        </mxCell>
      </root>
    </mxGraphModel>
  </diagram>
</mxfile>
